<svg width="20" height="20" viewBox="0 0 20 20" fill="none" xmlns="http://www.w3.org/2000/svg">
<path d="M10 0C7.67549 0.00823729 5.42646 0.826025 3.63955 2.31277C1.85265 3.79952 0.639506 5.86234 0.208692 8.1466C-0.222122 10.4309 0.156305 12.7939 1.27891 14.8293C2.40153 16.8648 4.19818 18.4456 6.36001 19.3C6.26001 18.51 6.19001 17.3 6.39001 16.43L7.56001 11.46C7.56001 11.46 7.26001 10.86 7.26001 9.98C7.26001 8.59 8.07001 7.56 9.08001 7.56C9.93001 7.56 10.35 8.2 10.35 8.96C10.35 9.82 9.80001 11.1 9.51001 12.29C9.27001 13.29 10.01 14.1 11 14.1C12.78 14.1 14.14 12.23 14.14 9.53C14.14 7.13 12.42 5.47 9.96001 5.47C9.3756 5.44433 8.79206 5.53734 8.24459 5.74342C7.69712 5.94951 7.19708 6.26438 6.77466 6.66904C6.35224 7.07371 6.0162 7.55977 5.78681 8.09789C5.55742 8.63601 5.43945 9.21503 5.44001 9.8C5.44001 10.66 5.77001 11.58 6.18001 12.08C6.26001 12.18 6.27001 12.27 6.24001 12.37L5.96001 13.5C5.92001 13.68 5.81001 13.73 5.63001 13.64C4.37001 13.05 3.59001 11.24 3.59001 9.76C3.59001 6.61 5.89001 3.72 10.21 3.72C13.67 3.72 16.38 6.18 16.38 9.49C16.38 12.94 14.2 15.71 11.18 15.71C10.18 15.71 9.22001 15.18 8.90001 14.56L8.27001 16.93C7.97488 17.8577 7.5579 18.7421 7.03001 19.56C8.40384 19.9816 9.85239 20.1021 11.277 19.9133C12.7016 19.7245 14.0688 19.2309 15.2854 18.4661C16.5021 17.7014 17.5396 16.6833 18.3273 15.4814C19.115 14.2795 19.6344 12.9219 19.8501 11.5011C20.0659 10.0804 19.9728 8.62979 19.5774 7.24822C19.182 5.86664 18.4934 4.58652 17.5586 3.49506C16.6238 2.40359 15.4648 1.52642 14.1604 0.923296C12.8561 0.320168 11.4371 0.00525257 10 0Z" fill="white"/>
</svg>
